<?xml version="1.0" encoding="UTF-8" standalone="no"?>
<!-- Created with Inkscape (http://www.inkscape.org/) -->

<svg
   version="1.1"
   id="svg1"
   width="817.93164"
   height="810.42188"
   viewBox="0 0 817.93164 810.42188"
   xml:space="preserve"
   sodipodi:docname="easy-contact.svg"
   inkscape:export-filename="easy-contact_white"
   inkscape:export-xdpi="96"
   inkscape:export-ydpi="96"
   xmlns:inkscape="http://www.inkscape.org/namespaces/inkscape"
   xmlns:sodipodi="http://sodipodi.sourceforge.net/DTD/sodipodi-0.dtd"
   xmlns="http://www.w3.org/2000/svg"
   xmlns:svg="http://www.w3.org/2000/svg"><sodipodi:namedview
     id="namedview1"
     pagecolor="#ffffff"
     bordercolor="#000000"
     borderopacity="0.25"
     inkscape:showpageshadow="2"
     inkscape:pageopacity="0.0"
     inkscape:pagecheckerboard="0"
     inkscape:deskcolor="#d1d1d1"><inkscape:page
       x="0"
       y="0"
       width="817.93164"
       height="810.42188"
       id="page1"
       margin="0"
       bleed="0" /></sodipodi:namedview><defs
     id="defs1" /><g
     id="g1"
     transform="translate(-467.09766,-99.962891)"
     style="fill:#ffffff;fill-opacity:1"><g
       id="g1316"
       style="fill:#ffffff;fill-opacity:1"><path
         id="path1"
         style="fill:#ffffff;fill-opacity:1;stroke:#263238;stroke-width:0;stroke-dasharray:none;paint-order:stroke fill markers"
         d="M 879.82031,99.962891 A 405.21024,405.21024 0 0 0 725.05273,131.52148 h 100.91016 a 378.64453,378.64453 0 0 1 54.37109,-3.95898 378.64453,378.64453 0 0 1 103.73829,14.5957 l -51.07032,-0.26562 -5.73828,1.04101 -5.73828,1.04102 -3.41406,5.56055 -3.41602,5.56054 0.45313,99.43946 0.45117,99.4375 3.48047,3.86718 3.48047,3.86719 3.48047,1.44727 3.48046,1.44531 5.29688,-0.0176 a 142.5,142.5 0 0 1 66.78514,-31.12695 H 946.05273 V 252.52344 171.5918 l 80.47847,0.45312 32.2051,0.18164 a 378.64453,378.64453 0 0 1 48.4453,30.85547 l 0.2813,49.89453 0.4531,80.47852 h -55.248 a 142.5,142.5 0 0 1 64.9258,30.48828 l 10.8886,-0.0371 4.4903,-4.2168 4.4902,-4.21875 -0.059,-101.92773 -0.016,-25.25195 a 378.64453,378.64453 0 0 1 121.5898,277.91601 378.64453,378.64453 0 0 1 -48.2676,184.92969 212.45052,212.45052 0 0 0 -138.0761,-102.53125 124.09563,124.09563 0 0 0 74.1386,-113.55859 124.09563,124.09563 0 0 0 -124.0957,-124.09571 124.09563,124.09563 0 0 0 -124.09567,124.09571 124.09563,124.09563 0 0 0 78.33399,115.04101 212.45052,212.45052 0 0 0 -161.56641,198.54297 14.73144,14.73144 0 0 0 -0.43945,3.42773 14.73144,14.73144 0 0 0 0.0195,0.28125 212.45052,212.45052 0 0 0 -0.0137,0.12305 h 0.0234 a 14.73144,14.73144 0 0 0 14.69922,14.32813 14.73144,14.73144 0 0 0 14.72266,-14.32813 h 0.002 A 182.82307,182.82307 0 0 1 1026.9355,612.50195 182.82307,182.82307 0 0 1 1192.5469,720.33789 378.64453,378.64453 0 0 1 880.33398,884.85156 378.64453,378.64453 0 0 1 667.72461,818.83008 H 624.37305 A 405.21024,405.21024 0 0 0 879.82031,910.38477 405.21024,405.21024 0 0 0 1285.0293,505.17383 405.21024,405.21024 0 0 0 879.82031,99.962891 Z m -402.11914,42.082029 -5.08789,5.08789 -5.08594,5.08594 v 100.30273 100.30469 l 1.78321,3.33203 1.78515,3.33399 4.74024,2.57226 4.74218,2.57422 97.06641,0.0684 97.06445,0.0703 5.80079,-2.42382 5.79882,-2.42188 1.97461,-5.66797 1.97657,-5.66601 V 252.19534 155.793 l -2.62891,-5.08203 -2.62891,-5.08203 -3.34765,-1.79102 -3.34766,-1.79297 H 578.00391 Z m 320.17578,0 -5.30078,5.30078 -5.30078,5.30274 0.98633,6.08594 0.98828,6.08789 4.01172,3.34375 4.01367,3.3457 10.875,0.0586 10.875,0.0566 v 8.75586 8.75781 l 2.42383,5.79883 2.42187,5.79883 5.66797,1.97461 5.66602,1.97656 h 8.4414 8.44141 V 221.2207 237.75 h -40.63281 -40.63281 l -5.33985,1.86133 -5.33789,1.86133 -2.75195,5.79687 -2.75,5.79883 v 16.00391 16.00585 l 2.80273,5.9043 2.80274,5.90625 6.42773,1.92578 6.42774,1.92774 17.60546,-0.60938 17.60352,-0.60937 4.48633,-4.21875 4.48633,-4.21875 v -11.00586 -11.00781 h 17.40039 17.40234 v 43.19921 43.19922 l 3.91406,3.56055 3.91602,3.5625 2.60937,0.95508 2.61133,0.95312 1.39063,0.13867 1.39062,0.13672 5.08399,-2.6289 5.08203,-2.62696 1.79101,-3.34765 1.79102,-3.34766 v -83.7539 -83.75391 l -1.79102,-3.34766 -1.79101,-3.34765 -5.08203,-2.62696 -5.08399,-2.6289 h -8.78515 -8.78711 v -8.78711 -8.78711 l -2.62891,-5.08203 -2.62695,-5.08203 -3.34961,-1.79102 -3.34766,-1.79297 H 818.13672 Z M 658.9375,171.5918 v 80.93164 80.93164 h -80.93164 -80.93164 l 0.45312,-80.47852 0.45118,-80.47851 80.48046,-0.45313 z m 79.93164,1.77539 -6.04492,2.52539 -6.04492,2.52734 -1.86133,4.86914 -1.85938,4.86914 0.56641,19.73047 0.56641,19.73047 4.88086,4.19531 4.88281,4.19727 h 3.26953 3.26953 l 4.38086,-1.66602 4.38086,-1.66406 2.69336,-5.20898 2.69336,-5.20899 v -8.78711 -8.78711 h 8.78711 8.78711 l 4.94531,-2.55664 4.94336,-2.55664 1.80469,-5.17578 1.80468,-5.17578 -1.26953,-4.88281 -1.26758,-4.88282 -6.00195,-3.04296 -6.00195,-3.04297 -16.15235,-0.002 z m -198.41602,33.0625 -4.27148,4.27148 -4.27148,4.26953 v 38.0586 38.05664 l 3.91601,3.5625 3.91602,3.5625 2.60937,1.0039 2.60938,1.00391 36.0625,-0.34766 36.0625,-0.34765 3.96094,-3.96289 3.95898,-3.96289 v -38.09375 -38.09375 l -4.21875,-4.49024 -4.21875,-4.49023 h -38.05664 z m 447.9668,0 -4.2168,4.48633 -4.21874,4.48632 -0.53516,34.48243 -0.53516,34.48242 2.63282,6.30078 2.63281,6.30078 3.99219,1.60156 3.99218,1.60352 33.23824,0.10937 33.2364,0.11133 5.3398,-1.86133 5.3379,-1.86132 2.752,-5.79688 2.75,-5.79688 v -32.45117 -32.44922 l -2.627,-5.08203 -2.6289,-5.08398 -3.3477,-1.79102 -3.3476,-1.79101 h -37.2227 z m -186.62109,126.8457 -5.19531,2.6875 -5.19727,2.6875 -1.41602,2.1875 -1.41601,2.1875 -0.86914,11.31055 -0.8711,11.31054 -8.69921,0.45508 -8.70118,0.45508 -3.96875,0.89648 -3.96875,0.89844 -3.41992,5.60742 -3.41992,5.60938 -0.008,24.79492 -0.006,24.79688 h -8.00196 -8.0039 l -5.83594,2.76953 -5.83594,2.76953 -1.93945,5.88086 -1.94141,5.88281 2.29297,4.7832 2.29297,4.78321 4.35156,2.27734 4.35157,2.27539 20.40234,-0.48437 20.40234,-0.48633 3.87305,-3.87891 3.875,-3.87695 0.72266,-11.34766 0.72265,-11.34765 h 8.58399 8.58398 l 5.08203,-2.62696 5.08203,-2.6289 1.79102,-3.34766 1.79297,-3.34766 v -37.22265 -37.22461 l -3.91602,-3.58203 -3.91601,-3.58399 -3.82813,-1.16015 z m -62.6875,0.31641 -5.47266,1.90625 -5.47265,1.9082 -2.38282,5.70703 -2.38476,5.70508 1.93554,5.55273 1.9336,5.55079 5.42187,2.3457 5.42188,2.3457 3.48047,-0.9668 3.48047,-0.96679 4.20507,-4.06641 4.20508,-4.0664 v -5.30274 -5.30273 l -3.33594,-3.70313 -3.33398,-3.70117 -3.85156,-1.47266 z m 283.49607,34.24414 A 106.78978,106.78978 0 0 1 1129.3965,474.625 106.78978,106.78978 0 0 1 1022.6074,581.41602 106.78978,106.78978 0 0 1 915.81836,474.625 106.78978,106.78978 0 0 1 1022.6074,367.83594 Z m -509.61131,30.00195 -4.54687,1.73047 -4.54883,1.72852 -2.51367,6.01757 -2.51563,6.01953 1.5293,3.99805 1.5293,3.99805 3.77929,3.4043 3.77735,3.40429 11.27539,0.7168 11.27344,0.71875 -0.4961,15.88867 -0.49804,15.88867 -11.31055,0.8711 -11.31055,0.86914 -2.35351,1.51758 -2.35157,1.51757 -2.43359,5.82227 -2.43164,5.82226 v 24.41602 24.41797 l -10.875,0.0586 -10.87695,0.0566 -4.01172,3.34571 -4.01172,3.34375 -0.98828,6.08789 -0.98828,6.08789 5.30273,5.30078 5.30078,5.30078 h 51.35156 51.35352 l 4.38086,-1.66602 4.38086,-1.66406 2.69336,-5.20898 2.69336,-5.20899 v -8.78711 -8.78711 l 8.26562,-0.002 8.26367,-0.004 6.05274,-3.04102 6.05078,-3.04297 1.46875,-5.2207 1.46875,-5.22071 -1.85352,-4.86914 -1.85351,-4.86914 -6.04492,-2.52539 -6.04688,-2.52734 h -15.77148 -15.77344 l -6.04492,2.52734 -6.04492,2.52539 -1.73047,4.54688 -1.72852,4.54883 v 9.45703 9.45703 H 546.70117 530.16992 V 509.2049 491.80451 l 10.87696,-0.0586 10.875,-0.0586 4.3496,-3.61328 4.35157,-3.61524 0.55078,-27.45507 0.55273,-27.45313 11.09571,-0.70703 11.09375,-0.70508 3.77929,-3.40429 3.77735,-3.4043 1.55273,-4.06055 1.55273,-4.0625 -2.76171,-5.82226 -2.76368,-5.82422 -5.33984,-1.86133 -5.33984,-1.86133 h -32.6875 z m 128.76758,0 -4.37305,1.66406 -4.37304,1.66211 -2.89649,4.41992 -2.89648,4.41993 1.16016,6.18164 1.16015,6.17968 5.56055,3.47266 5.56055,3.4707 19.39843,-0.50976 19.39844,-0.50781 3.85742,-3.48047 3.85742,-3.48047 1.5293,-3.99805 1.5293,-3.99805 -2.51563,-6.01953 -2.51367,-6.01757 -4.54687,-1.72852 -4.54883,-1.73047 H 658.9375 Z m 225.58203,31.02539 -18.90429,0.58399 -18.9043,0.58203 -4.82031,4.82617 -4.82032,4.82422 V 461.25 482.82227 l 4.2168,4.49023 4.21875,4.49023 h 27.53906 27.53711 v 17.40039 17.40235 h -27.53711 -27.53906 l -3.58203,3.91406 -3.58398,3.91602 -1.16016,3.82812 -1.16016,3.82813 2.6875,5.19726 2.6875,5.19532 2.1875,1.41601 2.1875,1.41602 11.31055,0.86914 11.31055,0.87109 0.45508,8.69922 0.45507,8.70117 0.89649,3.96875 0.89648,3.96875 5.60938,3.41992 5.60937,3.41993 9.01172,0.008 9.01367,0.006 0.46875,22.61328 a 221.66667,225 0 0 1 31.45313,-22.61328 h -0.35547 v -27.875 A 142.5,142.5 0 0 1 884,473.5 a 142.5,142.5 0 0 1 0.80664,-11.2793 h -3.13867 v -9.45703 -9.45703 l -1.66406,-4.37891 -1.66602,-4.38085 -5.49609,-2.8418 z m -257.05664,0.16992 -5.22851,2.70313 -5.22657,2.70312 -2.70507,5.22852 -2.70313,5.22851 2.82813,5.95899 2.82812,5.95898 4.63086,1.73243 4.63281,1.73242 4.33985,-0.90821 4.33984,-0.9082 2.36719,-1.96484 2.36523,-1.96289 1.61133,-4.23828 1.61133,-4.23633 -1.875,-5.68164 -1.875,-5.67969 -5.9707,-2.83399 z m 27.5,33.18946 -5.30078,5.30078 -5.30078,5.30078 0.98633,6.08789 0.98828,6.08594 4.01172,3.3457 4.01172,3.34375 h 37.41211 37.41211 l 4.01171,-3.34375 4.01172,-3.3457 0.98828,-6.08594 0.98829,-6.08789 -5.30079,-5.30078 -5.30078,-5.30078 h -36.81054 z m 101.02539,31.34375 -6.01757,2.51562 -6.01758,2.51367 -1.73047,4.54688 -1.72852,4.54883 v 32.6875 32.68945 l 1.85352,5.31836 1.85351,5.3164 5.54297,2.72071 5.54102,2.71875 3.48047,-0.9961 3.48047,-0.99609 4.26367,-4.125 4.26562,-4.125 0.72266,-11.35742 0.72266,-11.35547 h 10.14062 10.14258 l 4.79492,-4.125 4.79492,-4.125 v -6.26758 -6.26953 l -4.13086,-4.39648 -4.13281,-4.39844 h -10.80469 -10.80468 l -0.7129,-11.21289 -0.71484,-11.21094 -3.40234,-3.7793 -3.4043,-3.77734 -4,-1.5293 z m -64.21679,32.36718 -4.69336,1.65039 -4.69336,1.6504 -3.2168,5.50976 -3.2168,5.50977 2.52735,6.04882 2.52734,6.04883 3.20703,1.86524 3.20899,1.86523 4.02929,0.0527 4.0293,0.0527 3.51367,-1.88086 3.51367,-1.88086 2.54297,-6.08594 2.54297,-6.08593 -3.2168,-5.50977 -3.21874,-5.50976 -4.69336,-1.6504 z m 121.35546,33.03711 -4.125,4.79492 -4.125,4.79688 v 3.26953 3.26953 l 1.72852,4.54102 1.72656,4.54297 5.66797,2.46289 5.66797,2.46484 0.52148,0.0684 0.52149,0.0664 5.08203,-2.62696 5.08203,-2.6289 1.79297,-3.34766 1.79102,-3.34765 v -5.03126 -5.03124 l -4.39844,-4.13086 -4.39649,-4.13282 h -6.26953 z m -315.375,30.24414 -5.56054,3.41407 -5.56055,3.41406 -1.04101,5.73828 -1.04102,5.73828 0.51172,98.55469 0.51172,98.55469 4.34961,3.61718 4.34961,3.61719 101.92773,0.0586 101.92578,0.0586 4.21875,-4.49024 L 689.38867,803 V 701.38477 599.76758 l -4.82422,-4.82422 -4.82422,-4.82422 -99.58007,-0.45312 z m 16.53126,31.35547 h 80.91406 80.91406 v 80.91407 80.91406 h -79.75391 -79.7539 l -1.16016,-1.16016 -1.16015,-1.16016 v -79.7539 z m 236.8457,1.74024 -4.79492,4.125 -4.79493,4.125 v 6.26757 6.26758 l 4.08985,4.35547 4.0918,4.35547 27.14453,0.47852 27.14257,0.47656 v 16.53125 16.53125 l -27.14257,0.47656 -27.14453,0.47852 -4.17774,4.44336 -4.17773,4.44336 -0.46289,35.9707 -0.46094,35.9707 2.23633,4.31641 2.23632,4.3164 4.31446,2.1836 4.3164,2.18359 1.04493,0.0254 1.04687,0.0254 5.33789,-1.86132 5.33984,-1.86133 2.75,-5.79688 2.75196,-5.79687 v -24.41407 -24.41211 l 27.81054,-0.55468 27.8125,-0.55664 3.07422,-4.34961 3.07618,-4.34961 0.86914,-26.9707 0.87109,-26.97266 11.29687,-0.5293 11.29883,-0.5293 3.78125,-3.55078 3.7793,-3.55078 1.05469,-4.19922 1.05469,-4.20117 -2.66602,-5.15429 -2.66406,-5.15235 -3.34961,-1.79297 -3.34766,-1.79101 h -52.21875 z m -124.10547,31.12109 -34.48438,0.53516 -34.48242,0.53515 -4.48633,4.21875 -4.48632,4.21875 v 37.22266 37.22266 l 1.78515,3.33398 1.78321,3.33203 4.74218,2.57422 4.74024,2.57227 32.79883,0.0703 32.79882,0.0703 5.79688,-2.75195 5.79687,-2.75 1.86133,-5.33985 1.86133,-5.33984 v -32.6875 -32.68945 l -1.72852,-4.54688 -1.72851,-4.54883 -6.28516,-2.625 z m 158.93945,128.9668 -4.3789,1.66601 -4.38086,1.66407 -2.83008,5.4746 -2.83203,5.47461 2.11719,5.10938 2.11718,5.11133 3.62891,2.54101 3.62695,2.54102 43.25196,-0.0469 a 221.66667,225 0 0 1 -2.08204,-29.53515 H 793.9082 Z" /><g
         transform="translate(465,222)"
         id="g440"
         style="fill:#ffffff;fill-opacity:1"><g
           id="g1380"
           transform="translate(-154,51)"
           style="fill:#ffffff;fill-opacity:1" /></g></g></g></svg>
